<svg xmlns="http://www.w3.org/2000/svg" viewBox="0 0 178.95 178.98"><defs><style>.cls-1{fill:#fff;}</style></defs><g id="Calque_2" data-name="Calque 2"><g id="Calque_1-2" data-name="Calque 1"><path class="cls-1" d="M178.79,35.62c0-15.9-8.13-26.39-22-33.08A22.7,22.7,0,0,0,147,.37C133.3.23,119.6,0,105.91,0c-22.34,0-44.68,0-67,0A75.87,75.87,0,0,0,31.05.3,32.72,32.72,0,0,0,13.41,7.75C6.89,13.13,2.4,19.82.69,28.17a33.85,33.85,0,0,0-.5,6.53Q0,58,0,81.18q0,27.52,0,55.06c0,3,.14,6,.11,9a29.94,29.94,0,0,0,4.48,15.77A37.12,37.12,0,0,0,23.21,177c3.72,1.51,7.57,1.73,11.45,1.79q13.79.21,27.57.22,38.31,0,76.61-.07a72.26,72.26,0,0,0,11-.46c7.54-1.18,13.84-4.95,19.16-10.37a34.18,34.18,0,0,0,8.81-15.23,46,46,0,0,0,.89-8.32c.13-1.79.07-3.59.11-5.39,0-.36.08-.71.12-1.07V40C178.9,38.53,178.8,37.08,178.79,35.62Zm-8.91,118.1c-3.82,9.28-10.71,15-20.39,17.58a22.34,22.34,0,0,1-5.76.72q-53.91,0-107.82,0a27,27,0,0,1-9.78-1.79c-9.77-3.7-15.83-10.73-18.46-20.8a21.83,21.83,0,0,1-.7-5.58Q7,90,6.94,36A29.26,29.26,0,0,1,9.08,25.22,28.36,28.36,0,0,1,35.51,7.14Q71.39,7,107.27,7c13,0,26,0,39,.14a19.81,19.81,0,0,1,6.42,1.57c10.11,3.8,16.33,11.08,18.76,21.59a19.13,19.13,0,0,1,.51,4.13q0,27.57,0,55.15c0,17.77-.06,35.55,0,53.32A27.44,27.44,0,0,1,169.88,153.72Z"/><path class="cls-1" d="M89.83,37.84a52,52,0,1,0,52,52A52,52,0,0,0,89.83,37.84Zm-.35,83.9c-17,0-32.64-14.87-32.12-32.21-.37-19,16.38-32,31.22-32.25,19.51-.34,33.17,16.38,33.14,32.23C121.67,106.86,106.48,121.74,89.48,121.74Z"/><ellipse class="cls-1" cx="136.81" cy="31.46" rx="8.46" ry="14.13" transform="translate(41.17 134.21) rotate(-60)"/></g></g></svg>