<svg xmlns="http://www.w3.org/2000/svg" viewBox="0 0 128 128"><defs><style>.cls-1{fill:#fff;}.cls-2{fill:#040021;}</style></defs><g id="Calque_2" data-name="Calque 2"><g id="Calque_1-2" data-name="Calque 1"><circle class="cls-1" cx="64" cy="64" r="64"/><path class="cls-2" d="M40.88,75.61C24.38,69.82,22,57,24.33,43.53c2.05-11.94,7.79-21.86,18.26-27.86,18-10.31,43.26-10.82,58,8.84,6.68,8.9,9.72,19.32,7.39,31-1.48,7.44-2.9,14.44-7.81,20.67-8,10.12-25.48,14.49-37,8.51-.38-.19-.81-.28-1.87-.64-1.82,14.24-7,26.85-16.67,37.8-.38-.79-1-1.46-.95-2.06,1.92-18.56,4.14-37.08,5.75-55.66.53-6-.78-12.15-.74-18.23,0-7.84,5.14-12.44,12.83-12.2,5,.16,7.65,2.32,7.22,7.22a199.07,199.07,0,0,1-3.41,23.71c-1,4.57.12,7.83,3.55,10.39s7.18,2.41,10.77-.06c9-6.19,13.9-14.58,13.78-25.65,0-3.64.34-7.38-.34-10.91-2.15-11.27-8.63-14.68-20.42-17.28C49.61,16,36.35,35.81,38.05,54.63a8.35,8.35,0,0,0,2,4.9C45.28,64.77,41.7,70.08,40.88,75.61Z"/></g></g></svg>